<?xml version="1.0" encoding="UTF-8"?> <svg xmlns="http://www.w3.org/2000/svg" width="246" height="96" viewBox="0 0 246 96" fill="none"><path d="M23.6053 0C36.8354 0 41.4705 7.36609 41.4705 18.9819V30.1018H24.2806V20.0797C24.2806 17.6007 23.7281 16.0779 21.5794 16.0779C19.5227 16.0779 18.8781 17.5653 18.8781 20.1859V22.5587C18.8781 26.3125 19.6455 28.6853 22.7765 32.0496L31.9854 41.5405C40.1198 50.0398 42.6062 56.5206 42.6062 66.5073V71.1111C42.6062 85.4537 36.5284 95.3342 22.6844 95.3342H18.7553C6.3848 95.3696 0 88.3931 0 74.9004V60.062H17.5582V72.9172C17.5582 76.0336 18.3256 77.7689 20.5971 77.7689C22.7765 77.7689 23.5132 75.892 23.5132 72.2798V69.8008C23.5132 64.4179 23.1756 62.1868 19.2772 58.0788L9.94555 48.4816C3.22309 41.6113 0.736707 33.9973 0.736707 24.5064V20.0797C0.767403 7.86189 7.1522 0 19.6148 0H23.6053Z" fill="black"></path><path d="M43.9569 0H62.3745V71.3873C62.3745 74.5038 63.3568 76.1328 65.2907 76.1328C67.4701 76.1328 68.2068 74.3975 68.2068 71.3873V0H86.6245V72.4144C86.6245 86.5091 79.5951 96 66.9176 96H63.4489C50.004 96 43.9569 86.6507 43.9569 72.4144V0Z" fill="black"></path><path d="M106.577 96H88.7118V0H116.768C124.688 0 130.09 5.38291 130.09 16.3612V29.8185C130.09 38.4241 126.192 42.2842 123.061 43.9132C126.1 45.2944 130.09 49.4307 130.09 56.4073V88.6339C130.09 92.1399 130.643 94.1231 131.165 95.3626V96H113.514C112.747 94.8668 112.102 92.7419 112.102 89.3776V60.9402C112.102 57.8238 111.458 56.4427 109.063 56.4427H106.577V96ZM106.577 38.5657H108.848C111.12 38.5657 112.102 37.3262 112.102 34.0682V20.363C112.102 17.1049 111.55 16.0071 109.186 16.0071H106.577V38.5657Z" fill="black"></path><path d="M132.454 0H166.158V19.0881H150.135V36.2992H162.475V56.2656H150.135V95.9646H132.485V0H132.454Z" fill="black"></path><path d="M201.06 0V19.2297H185.251V36.3347H197.929V56.4427H185.251V76.4161H201.704V96H167.601V0H201.06Z" fill="black"></path><path d="M220.981 96H203.116V0H231.173C239.092 0 244.495 5.38291 244.495 16.3612V29.8185C244.495 38.4241 240.596 42.2842 237.465 43.9132C240.504 45.2944 244.495 49.4307 244.495 56.4073V88.6339C244.495 92.1399 245.047 94.1231 245.569 95.3626V96H227.919C227.151 94.8668 226.507 92.7419 226.507 89.3776V60.9402C226.507 57.8238 225.862 56.4427 223.468 56.4427H220.981V96ZM220.981 38.5657H223.253C225.525 38.5657 226.507 37.3262 226.507 34.0682V20.363C226.507 17.1049 225.954 16.0071 223.591 16.0071H220.981V38.5657Z" fill="black"></path></svg> 